<svg width="79" height="71" viewBox="0 0 79 71" fill="none" xmlns="http://www.w3.org/2000/svg">
<g filter="url(#filter0_d_15_244)">
<path d="M42.0895 52.5731C40.9311 54.5534 38.0689 54.5534 36.9105 52.5731L8.7989 4.51473C7.62903 2.51478 9.07144 1.60347e-06 11.3884 1.80602e-06L67.6116 6.72121e-06C69.9286 6.92377e-06 71.371 2.51479 70.2011 4.51474L42.0895 52.5731Z" fill="#825E8C"/>
<path d="M40.3632 51.5633C39.977 52.2234 39.023 52.2234 38.6368 51.5633L10.5252 3.50491C10.1353 2.83826 10.6161 2 11.3884 2L67.6116 2.00001C68.3839 2.00001 68.8647 2.83827 68.4748 3.50492L40.3632 51.5633Z" stroke="#DAE0E3" stroke-width="4"/>
</g>
<defs>
<filter id="filter0_d_15_244" x="0.383789" y="0" width="78.2324" height="70.0583" filterUnits="userSpaceOnUse" color-interpolation-filters="sRGB">
<feFlood flood-opacity="0" result="BackgroundImageFix"/>
<feColorMatrix in="SourceAlpha" type="matrix" values="0 0 0 0 0 0 0 0 0 0 0 0 0 0 0 0 0 0 127 0" result="hardAlpha"/>
<feOffset dy="8"/>
<feGaussianBlur stdDeviation="4"/>
<feComposite in2="hardAlpha" operator="out"/>
<feColorMatrix type="matrix" values="0 0 0 0 0.175 0 0 0 0 0.163889 0 0 0 0 0.3 0 0 0 0.25 0"/>
<feBlend mode="normal" in2="BackgroundImageFix" result="effect1_dropShadow_15_244"/>
<feBlend mode="normal" in="SourceGraphic" in2="effect1_dropShadow_15_244" result="shape"/>
</filter>
</defs>
</svg>
