<svg width="16" height="16" viewBox="0 0 16 16" fill="none" xmlns="http://www.w3.org/2000/svg">
<path d="M14.9998 -0.000183105C15.2862 -0.000183105 15.5244 0.0948571 15.7145 0.284937C15.9046 0.475017 15.9996 0.713257 15.9996 0.999657C15.9996 1.28094 15.9033 1.5179 15.7106 1.71054L9.41352 7.9995L15.7106 14.2885C15.9033 14.4811 15.9996 14.7181 15.9996 14.9993C15.9996 15.2857 15.9046 15.524 15.7145 15.7141C15.5244 15.9041 15.2862 15.9992 14.9998 15.9992C14.7185 15.9992 14.4815 15.9029 14.2889 15.7102L7.99992 9.4131L1.71096 15.7102C1.51832 15.9029 1.28136 15.9992 1.00008 15.9992C0.713684 15.9992 0.475444 15.9041 0.285364 15.7141C0.0952844 15.524 0.000244141 15.2857 0.000244141 14.9993C0.000244141 14.7181 0.0965642 14.4811 0.289204 14.2885L6.58632 7.9995L0.289204 1.71054C0.0965642 1.5179 0.000244141 1.28094 0.000244141 0.999657C0.000244141 0.713257 0.0952844 0.475017 0.285364 0.284937C0.475444 0.0948571 0.713684 -0.000183105 1.00008 -0.000183105C1.28136 -0.000183105 1.51832 0.096137 1.71096 0.288777L7.99992 6.5859L14.2889 0.288777C14.4815 0.096137 14.7185 -0.000183105 14.9998 -0.000183105Z" fill="#825E8C"/>
</svg>
